<?xml version="1.0" encoding="UTF-8" standalone="no"?>
<!-- Created with Inkscape (http://www.inkscape.org/) -->

<svg
   xmlns:dc="http://purl.org/dc/elements/1.1/"
   xmlns:cc="http://creativecommons.org/ns#"
   xmlns:rdf="http://www.w3.org/1999/02/22-rdf-syntax-ns#"
   xmlns:svg="http://www.w3.org/2000/svg"
   xmlns="http://www.w3.org/2000/svg"
   xmlns:sodipodi="http://sodipodi.sourceforge.net/DTD/sodipodi-0.dtd"
   xmlns:inkscape="http://www.inkscape.org/namespaces/inkscape"
   width="9.5911474mm"
   height="2.8249006mm"
   viewBox="0 0 33.984381 10.009491"
   id="svg2"
   version="1.1"
   inkscape:version="0.91 r13725"
   sodipodi:docname="logo-no-name.svg">
  <defs
     id="defs4" />
  <sodipodi:namedview
     id="base"
     pagecolor="#ffffff"
     bordercolor="#666666"
     borderopacity="1.0"
     inkscape:pageopacity="0.0"
     inkscape:pageshadow="2"
     inkscape:zoom="11.2"
     inkscape:cx="3.4642109"
     inkscape:cy="-4.860299"
     inkscape:document-units="px"
     inkscape:current-layer="layer1"
     showgrid="true"
     fit-margin-top="0"
     fit-margin-left="0"
     fit-margin-right="0"
     fit-margin-bottom="0"
     inkscape:window-width="1920"
     inkscape:window-height="1017"
     inkscape:window-x="-8"
     inkscape:window-y="-8"
     inkscape:window-maximized="1">
    <inkscape:grid
       type="xygrid"
       id="grid3336"
       originx="-285.00423"
       originy="-620.00094" />
  </sodipodi:namedview>
  <metadata
     id="metadata7">
    <rdf:RDF>
      <cc:Work
         rdf:about="">
        <dc:format>image/svg+xml</dc:format>
        <dc:type
           rdf:resource="http://purl.org/dc/dcmitype/StillImage" />
        <dc:title></dc:title>
      </cc:Work>
    </rdf:RDF>
  </metadata>
  <g
     inkscape:label="Layer 1"
     inkscape:groupmode="layer"
     id="layer1"
     transform="translate(-285.00421,-422.35184)">
    <path
       inkscape:connector-curvature="0"
       style="fill:#ff0000;stroke:none"
       d="m 286.00421,422.36133 c -0.554,0 -1,0.446 -1,1 l 0,8 c 0,0.55399 0.446,1 1,1 l 8,0 c 0.554,0 1,-0.44601 1,-1 l 0,-8 c 0,-0.554 -0.446,-1 -1,-1 l -8,0 z m 3.13867,2.04687 1.72266,0 c 0.0619,0 0.11511,0.0234 0.16015,0.0684 0.045,0.045 0.0664,0.0983 0.0664,0.16016 l 0,5.45117 c 0,0.0619 -0.0214,0.11511 -0.0664,0.16016 -0.045,0.045 -0.0982,0.0684 -0.16015,0.0684 l -1.72266,0 c -0.0619,0 -0.11511,-0.0234 -0.16015,-0.0684 -0.045,-0.045 -0.0664,-0.0982 -0.0664,-0.16016 l 0,-5.45117 c 0,-0.0619 0.0214,-0.11511 0.0664,-0.16016 0.045,-0.045 0.0983,-0.0684 0.16015,-0.0684 z"
       id="rect3355" />
    <path
       inkscape:connector-curvature="0"
       style="fill:#00d400;stroke:none"
       d="m 298.01788,422.35519 c -0.55399,0 -1,0.446 -1,1 l 0,8 c 0,0.55399 0.44601,1 1,1 l 8,0 c 0.554,0 1,-0.44601 1,-1 l 0,-8 c 0,-0.554 -0.446,-1 -1,-1 l -8,0 z m 1.57031,2.04687 1.33399,0 c 0.15755,0 0.27256,0.0639 0.3457,0.19336 l 1.42578,2.33789 0,-2.30273 c 0,-0.0619 0.0234,-0.11511 0.0684,-0.16016 0.045,-0.045 0.0983,-0.0684 0.16016,-0.0684 l 1.52734,0 c 0.0619,0 0.11512,0.0234 0.16016,0.0684 0.045,0.045 0.0684,0.0982 0.0684,0.16016 l 0,5.45117 c 0,0.0619 -0.0234,0.11511 -0.0684,0.16016 -0.045,0.045 -0.0983,0.0684 -0.16016,0.0684 l -1.33398,0 c -0.1463,0 -0.2613,-0.0639 -0.34571,-0.19335 l -1.42578,-2.15235 0,2.11719 c 0,0.0619 -0.0234,0.11511 -0.0684,0.16016 -0.045,0.045 -0.0983,0.0684 -0.16015,0.0684 l -1.52735,0 c -0.0619,0 -0.11511,-0.0233 -0.16015,-0.0684 -0.045,-0.045 -0.0684,-0.0983 -0.0684,-0.16016 l 0,-5.45117 c 0,-0.0619 0.0234,-0.11511 0.0684,-0.16016 0.045,-0.045 0.0982,-0.0684 0.16015,-0.0684 z"
       id="rect3355-3" />
    <path
       inkscape:connector-curvature="0"
       style="fill:#0066ff;stroke:none"
       d="m 309.98859,422.35184 c -0.554,0 -1,0.44601 -1,1 l 0,8 c 0,0.554 0.446,1 1,1 l 8,0 c 0.55399,0 1,-0.446 1,-1 l 0,-8 c 0,-0.55399 -0.44601,-1 -1,-1 l -8,0 z m 3.99218,1.9629 c 1.09726,0 1.9042,0.30876 2.42188,0.92773 0.28134,0.33199 0.42187,0.74287 0.42187,1.23242 0,0.0507 -0.0192,0.0954 -0.0586,0.13477 -0.0337,0.0337 -0.0763,0.0508 -0.12695,0.0508 l -1.72266,0 c -0.09,0 -0.15615,-0.017 -0.20117,-0.0508 -0.0394,-0.0337 -0.0776,-0.0977 -0.11133,-0.19336 -0.10691,-0.30386 -0.31771,-0.45703 -0.63281,-0.45703 -0.4164,0 -0.625,0.2278 -0.625,0.68359 l 0,1.41797 c 0,0.45579 0.2086,0.68359 0.625,0.68359 0.32073,0 0.53152,-0.15122 0.63281,-0.45508 0.0281,-0.0957 0.0622,-0.1596 0.10156,-0.19336 0.045,-0.0338 0.11527,-0.0508 0.21094,-0.0508 l 1.72266,0 c 0.0507,0 0.0932,0.0192 0.12695,0.0586 0.0394,0.0337 0.0586,0.0763 0.0586,0.12695 0,0.48955 -0.14053,0.90044 -0.42187,1.23242 -0.51768,0.61897 -1.32462,0.92774 -2.42188,0.92774 -0.86092,0 -1.54849,-0.18745 -2.06054,-0.56446 -0.51206,-0.38263 -0.76758,-0.96808 -0.76758,-1.75586 l 0,-1.43554 c 0,-0.7709 0.26185,-1.35002 0.78515,-1.73828 0.52331,-0.38826 1.20456,-0.58204 2.04297,-0.58203 z"
       id="rect3355-3-7" />
  </g>
</svg>
