<?xml version="1.0" encoding="UTF-8" standalone="no"?>
<!-- Created with Inkscape (http://www.inkscape.org/) -->

<svg
   xmlns:dc="http://purl.org/dc/elements/1.1/"
   xmlns:cc="http://creativecommons.org/ns#"
   xmlns:rdf="http://www.w3.org/1999/02/22-rdf-syntax-ns#"
   xmlns:svg="http://www.w3.org/2000/svg"
   xmlns="http://www.w3.org/2000/svg"
   xmlns:sodipodi="http://sodipodi.sourceforge.net/DTD/sodipodi-0.dtd"
   xmlns:inkscape="http://www.inkscape.org/namespaces/inkscape"
   width="9.5962782mm"
   height="3.9744987mm"
   viewBox="0 0 34.002561 14.08287"
   id="svg2"
   version="1.1"
   inkscape:version="0.91 r13725"
   sodipodi:docname="logo-black.svg">
  <defs
     id="defs4" />
  <sodipodi:namedview
     id="base"
     pagecolor="#ffffff"
     bordercolor="#666666"
     borderopacity="1.0"
     inkscape:pageopacity="0.0"
     inkscape:pageshadow="2"
     inkscape:zoom="15.839192"
     inkscape:cx="27.682974"
     inkscape:cy="-2.9500115"
     inkscape:document-units="px"
     inkscape:current-layer="layer1"
     showgrid="true"
     fit-margin-top="0"
     fit-margin-left="0"
     fit-margin-right="0"
     fit-margin-bottom="0"
     inkscape:window-width="1920"
     inkscape:window-height="1017"
     inkscape:window-x="-8"
     inkscape:window-y="-8"
     inkscape:window-maximized="1">
    <inkscape:grid
       type="xygrid"
       id="grid3336"
       originx="-284.98604"
       originy="-615.92752" />
  </sodipodi:namedview>
  <metadata
     id="metadata7">
    <rdf:RDF>
      <cc:Work
         rdf:about="">
        <dc:format>image/svg+xml</dc:format>
        <dc:type
           rdf:resource="http://purl.org/dc/dcmitype/StillImage" />
        <dc:title></dc:title>
      </cc:Work>
    </rdf:RDF>
  </metadata>
  <g
     inkscape:label="Layer 1"
     inkscape:groupmode="layer"
     id="layer1"
     transform="translate(-284.98603,-422.35184)">
    <path
       inkscape:connector-curvature="0"
       style="stroke:none"
       d="m 286.00421,422.36133 c -0.554,0 -1,0.446 -1,1 l 0,8 c 0,0.55399 0.446,1 1,1 l 8,0 c 0.554,0 1,-0.44601 1,-1 l 0,-8 c 0,-0.554 -0.446,-1 -1,-1 l -8,0 z m 3.13867,2.04687 1.72266,0 c 0.0619,0 0.11511,0.0234 0.16015,0.0684 0.045,0.045 0.0664,0.0983 0.0664,0.16016 l 0,5.45117 c 0,0.0619 -0.0214,0.11511 -0.0664,0.16016 -0.045,0.045 -0.0982,0.0684 -0.16015,0.0684 l -1.72266,0 c -0.0619,0 -0.11511,-0.0234 -0.16015,-0.0684 -0.045,-0.045 -0.0664,-0.0982 -0.0664,-0.16016 l 0,-5.45117 c 0,-0.0619 0.0214,-0.11511 0.0664,-0.16016 0.045,-0.045 0.0983,-0.0684 0.16015,-0.0684 z"
       id="rect3355" />
    <path
       inkscape:connector-curvature="0"
       style="stroke:none"
       d="m 298.01788,422.35519 c -0.55399,0 -1,0.446 -1,1 l 0,8 c 0,0.55399 0.44601,1 1,1 l 8,0 c 0.554,0 1,-0.44601 1,-1 l 0,-8 c 0,-0.554 -0.446,-1 -1,-1 l -8,0 z m 1.57031,2.04687 1.33399,0 c 0.15755,0 0.27256,0.0639 0.3457,0.19336 l 1.42578,2.33789 0,-2.30273 c 0,-0.0619 0.0234,-0.11511 0.0684,-0.16016 0.045,-0.045 0.0983,-0.0684 0.16016,-0.0684 l 1.52734,0 c 0.0619,0 0.11512,0.0234 0.16016,0.0684 0.045,0.045 0.0684,0.0982 0.0684,0.16016 l 0,5.45117 c 0,0.0619 -0.0234,0.11511 -0.0684,0.16016 -0.045,0.045 -0.0983,0.0684 -0.16016,0.0684 l -1.33398,0 c -0.1463,0 -0.2613,-0.0639 -0.34571,-0.19335 l -1.42578,-2.15235 0,2.11719 c 0,0.0619 -0.0234,0.11511 -0.0684,0.16016 -0.045,0.045 -0.0983,0.0684 -0.16015,0.0684 l -1.52735,0 c -0.0619,0 -0.11511,-0.0233 -0.16015,-0.0684 -0.045,-0.045 -0.0684,-0.0983 -0.0684,-0.16016 l 0,-5.45117 c 0,-0.0619 0.0234,-0.11511 0.0684,-0.16016 0.045,-0.045 0.0982,-0.0684 0.16015,-0.0684 z"
       id="rect3355-3" />
    <path
       inkscape:connector-curvature="0"
       style="stroke:none"
       d="m 309.98859,422.35184 c -0.554,0 -1,0.44601 -1,1 l 0,8 c 0,0.554 0.446,1 1,1 l 8,0 c 0.55399,0 1,-0.446 1,-1 l 0,-8 c 0,-0.55399 -0.44601,-1 -1,-1 l -8,0 z m 3.99218,1.9629 c 1.09726,0 1.9042,0.30876 2.42188,0.92773 0.28134,0.33199 0.42187,0.74287 0.42187,1.23242 0,0.0507 -0.0192,0.0954 -0.0586,0.13477 -0.0337,0.0337 -0.0763,0.0508 -0.12695,0.0508 l -1.72266,0 c -0.09,0 -0.15615,-0.017 -0.20117,-0.0508 -0.0394,-0.0337 -0.0776,-0.0977 -0.11133,-0.19336 -0.10691,-0.30386 -0.31771,-0.45703 -0.63281,-0.45703 -0.4164,0 -0.625,0.2278 -0.625,0.68359 l 0,1.41797 c 0,0.45579 0.2086,0.68359 0.625,0.68359 0.32073,0 0.53152,-0.15122 0.63281,-0.45508 0.0281,-0.0957 0.0622,-0.1596 0.10156,-0.19336 0.045,-0.0338 0.11527,-0.0508 0.21094,-0.0508 l 1.72266,0 c 0.0507,0 0.0932,0.0192 0.12695,0.0586 0.0394,0.0337 0.0586,0.0763 0.0586,0.12695 0,0.48955 -0.14053,0.90044 -0.42187,1.23242 -0.51768,0.61897 -1.32462,0.92774 -2.42188,0.92774 -0.86092,0 -1.54849,-0.18745 -2.06054,-0.56446 -0.51206,-0.38263 -0.76758,-0.96808 -0.76758,-1.75586 l 0,-1.43554 c 0,-0.7709 0.26185,-1.35002 0.78515,-1.73828 0.52331,-0.38826 1.20456,-0.58204 2.04297,-0.58203 z"
       id="rect3355-3-7" />
    <g
       style="font-style:normal;font-variant:normal;font-weight:normal;font-stretch:normal;font-size:2.15253901px;line-height:125%;font-family:'Rubik One';-inkscape-font-specification:'Rubik One, Normal';text-align:start;letter-spacing:0px;word-spacing:0px;writing-mode:lr-tb;text-anchor:start;fill:#000000;fill-opacity:1;stroke:none;stroke-width:1px;stroke-linecap:butt;stroke-linejoin:miter;stroke-opacity:1"
       id="text3404">
      <path
         d="m 285.48325,435.96112 -0.43912,0 q -0.0237,0 -0.0409,-0.0172 -0.0172,-0.0172 -0.0172,-0.0409 l 0,-1.39054 q 0,-0.0237 0.0172,-0.0409 0.0172,-0.0172 0.0409,-0.0172 l 0.43912,0 q 0.0237,0 0.0409,0.0172 0.0172,0.0172 0.0172,0.0409 l 0,1.39054 q 0,0.0237 -0.0172,0.0409 -0.0172,0.0172 -0.0409,0.0172 z"
         id="path3424"
         inkscape:connector-curvature="0" />
      <path
         d="m 287.0582,435.3089 0,0.5941 q 0,0.0237 -0.0172,0.0409 -0.0172,0.0172 -0.0409,0.0172 l -0.41114,0 q -0.0237,0 -0.0409,-0.0172 -0.0172,-0.0172 -0.0172,-0.0409 l 0,-0.57903 q 0,-0.11839 -0.10763,-0.11839 -0.10762,0 -0.10762,0.11839 l 0,0.57903 q 0,0.0237 -0.0172,0.0409 -0.0172,0.0172 -0.0409,0.0172 l -0.40898,0 q -0.0237,0 -0.0409,-0.0172 -0.0172,-0.0172 -0.0172,-0.0409 l 0,-1.00308 q 0,-0.0237 0.0172,-0.0409 0.0172,-0.0172 0.0409,-0.0172 l 0.37669,0 q 0.0237,0 0.0409,0.0172 0.0172,0.0172 0.0172,0.0409 l 0,0.071 q 0.056,-0.0667 0.15068,-0.10762 0.0969,-0.0431 0.20664,-0.0431 0.17651,0 0.29705,0.12485 0.12054,0.1227 0.12054,0.36378 z"
         id="path3426"
         inkscape:connector-curvature="0" />
      <path
         d="m 287.90758,435.21849 0,0.23678 q 0,0.10763 0.0926,0.10763 l 0.19588,0 q 0.0237,0 0.0409,0.0172 0.0172,0.0172 0.0172,0.0409 l 0,0.28198 q 0,0.0237 -0.0172,0.0409 -0.0172,0.0172 -0.0409,0.0172 l -0.24323,0 q -0.53814,0 -0.53814,-0.4628 l 0,-0.27983 -0.17005,0 q -0.0237,0 -0.0409,-0.0172 -0.0172,-0.0172 -0.0172,-0.0409 l 0,-0.26046 q 0,-0.0237 0.0172,-0.0409 0.0172,-0.0172 0.0409,-0.0172 l 0.17005,0 0,-0.35086 q 0,-0.0237 0.0172,-0.0409 0.0172,-0.0172 0.0409,-0.0172 l 0.37669,0 q 0.0237,0 0.0409,0.0172 0.0172,0.0172 0.0172,0.0409 l 0,0.35086 0.27122,0 q 0.0237,0 0.0409,0.0172 0.0172,0.0172 0.0172,0.0409 l 0,0.26046 q 0,0.0237 -0.0172,0.0409 -0.0172,0.0172 -0.0409,0.0172 l -0.27122,0 z"
         id="path3428"
         inkscape:connector-curvature="0" />
      <path
         d="m 289.5419,435.52846 -0.64146,0 0,0.0108 q 0,0.13131 0.084,0.13131 0.0237,0 0.0581,-0.0344 0.0344,-0.0344 0.0753,-0.0344 l 0.40683,0 q 0.0473,0 0.0473,0.0473 0,0.10548 -0.15929,0.21956 -0.15713,0.11409 -0.42835,0.11409 -0.26907,0 -0.44127,-0.13992 -0.17005,-0.14207 -0.17005,-0.38961 l 0,-0.10332 q 0,-0.23463 0.17435,-0.381 0.17436,-0.14853 0.45634,-0.14853 0.28414,0 0.43912,0.16575 0.15714,0.16575 0.15714,0.41975 l 0,0.0646 q 0,0.0237 -0.0172,0.0409 -0.0172,0.0172 -0.0409,0.0172 z m -0.46926,-0.27768 q 0,-0.12915 -0.0861,-0.12915 -0.0861,0 -0.0861,0.12915 l 0,0.009 0.1722,0 0,-0.009 z"
         id="path3430"
         inkscape:connector-curvature="0" />
      <path
         d="m 290.25573,434.89992 0,0.0753 q 0.15068,-0.13346 0.3358,-0.13346 l 0.10332,0 q 0.0237,0 0.0409,0.0172 0.0172,0.0172 0.0172,0.0409 l 0,0.33579 q 0,0.0237 -0.0172,0.0409 -0.0172,0.0172 -0.0409,0.0172 l -0.27768,0 q -0.0581,0 -0.0926,0.028 -0.0323,0.0258 -0.0366,0.071 l 0,0.51015 q 0,0.0237 -0.0172,0.0409 -0.0172,0.0172 -0.0409,0.0172 l -0.40898,0 q -0.0237,0 -0.0409,-0.0172 -0.0172,-0.0172 -0.0172,-0.0409 l 0,-1.00308 q 0,-0.0237 0.0172,-0.0409 0.0172,-0.0172 0.0409,-0.0172 l 0.37669,0 q 0.0237,0 0.0409,0.0172 0.0172,0.0172 0.0172,0.0409 z"
         id="path3432"
         inkscape:connector-curvature="0" />
      <path
         d="m 292.1915,435.3089 0,0.5941 q 0,0.0237 -0.0172,0.0409 -0.0172,0.0172 -0.0409,0.0172 l -0.41114,0 q -0.0237,0 -0.0409,-0.0172 -0.0172,-0.0172 -0.0172,-0.0409 l 0,-0.57903 q 0,-0.11839 -0.10762,-0.11839 -0.10763,0 -0.10763,0.11839 l 0,0.57903 q 0,0.0237 -0.0172,0.0409 -0.0172,0.0172 -0.0409,0.0172 l -0.40898,0 q -0.0237,0 -0.0409,-0.0172 -0.0172,-0.0172 -0.0172,-0.0409 l 0,-1.00308 q 0,-0.0237 0.0172,-0.0409 0.0172,-0.0172 0.0409,-0.0172 l 0.37669,0 q 0.0237,0 0.0409,0.0172 0.0172,0.0172 0.0172,0.0409 l 0,0.071 q 0.056,-0.0667 0.15068,-0.10762 0.0969,-0.0431 0.20664,-0.0431 0.17651,0 0.29705,0.12485 0.12054,0.1227 0.12054,0.36378 z"
         id="path3434"
         inkscape:connector-curvature="0" />
      <path
         d="m 293.53166,435.52846 -0.64145,0 0,0.0108 q 0,0.13131 0.0839,0.13131 0.0237,0 0.0581,-0.0344 0.0344,-0.0344 0.0753,-0.0344 l 0.40683,0 q 0.0474,0 0.0474,0.0473 0,0.10548 -0.15929,0.21956 -0.15714,0.11409 -0.42836,0.11409 -0.26906,0 -0.44127,-0.13992 -0.17005,-0.14207 -0.17005,-0.38961 l 0,-0.10332 q 0,-0.23463 0.17436,-0.381 0.17435,-0.14853 0.45634,-0.14853 0.28413,0 0.43912,0.16575 0.15713,0.16575 0.15713,0.41975 l 0,0.0646 q 0,0.0237 -0.0172,0.0409 -0.0172,0.0172 -0.0409,0.0172 z m -0.46925,-0.27768 q 0,-0.12915 -0.0861,-0.12915 -0.0861,0 -0.0861,0.12915 l 0,0.009 0.1722,0 0,-0.009 z"
         id="path3436"
         inkscape:connector-curvature="0" />
      <path
         d="m 294.41985,435.21849 0,0.23678 q 0,0.10763 0.0926,0.10763 l 0.19588,0 q 0.0237,0 0.0409,0.0172 0.0172,0.0172 0.0172,0.0409 l 0,0.28198 q 0,0.0237 -0.0172,0.0409 -0.0172,0.0172 -0.0409,0.0172 l -0.24323,0 q -0.53814,0 -0.53814,-0.4628 l 0,-0.27983 -0.17005,0 q -0.0237,0 -0.0409,-0.0172 -0.0172,-0.0172 -0.0172,-0.0409 l 0,-0.26046 q 0,-0.0237 0.0172,-0.0409 0.0172,-0.0172 0.0409,-0.0172 l 0.17005,0 0,-0.35086 q 0,-0.0237 0.0172,-0.0409 0.0172,-0.0172 0.0409,-0.0172 l 0.37669,0 q 0.0237,0 0.0409,0.0172 0.0172,0.0172 0.0172,0.0409 l 0,0.35086 0.27122,0 q 0.0237,0 0.0409,0.0172 0.0172,0.0172 0.0172,0.0409 l 0,0.26046 q 0,0.0237 -0.0172,0.0409 -0.0172,0.0172 -0.0409,0.0172 l -0.27122,0 z"
         id="path3438"
         inkscape:connector-curvature="0" />
      <path
         d="m 295.6538,434.8418 0.20018,0 q 0.0581,0 0.0732,0.0517 l 0.13991,0.44773 0.13131,-0.44773 q 0.0151,-0.0517 0.0732,-0.0517 l 0.33149,0 q 0.0215,0 0.0366,0.0151 0.0151,0.0151 0.0151,0.0301 0,0.0151 -0.002,0.0237 l -0.31427,0.99663 q -0.0172,0.0538 -0.071,0.0538 l -0.28844,0 q -0.0538,0 -0.071,-0.0538 l -0.15283,-0.43482 -0.15499,0.43482 q -0.0172,0.0538 -0.071,0.0538 l -0.28844,0 q -0.0538,0 -0.071,-0.0538 l -0.31428,-0.99663 q -0.002,-0.009 -0.002,-0.0237 0,-0.0151 0.0151,-0.0301 0.0151,-0.0151 0.0366,-0.0151 l 0.33149,0 q 0.0581,0 0.0732,0.0517 l 0.13131,0.44773 0.13991,-0.44773 q 0.0151,-0.0517 0.0732,-0.0517 z"
         id="path3440"
         inkscape:connector-curvature="0" />
      <path
         d="m 296.77302,435.47465 0,-0.14638 q 0,-0.24539 0.17435,-0.37669 0.17436,-0.13131 0.44988,-0.13131 0.27553,0 0.44988,0.13131 0.17436,0.1313 0.17436,0.37669 l 0,0.14638 q 0,0.24754 -0.1679,0.37884 -0.1679,0.12916 -0.45634,0.12916 -0.28844,0 -0.45634,-0.12916 -0.16789,-0.1313 -0.16789,-0.37884 z m 0.7211,0.0172 0,-0.18082 q 0,-0.0818 -0.0215,-0.11408 -0.0215,-0.0323 -0.0753,-0.0323 -0.0538,0 -0.0753,0.0323 -0.0215,0.0323 -0.0215,0.11408 l 0,0.18082 q 0,0.0861 0.0215,0.11623 0.0215,0.0301 0.0753,0.0301 0.0538,0 0.0753,-0.0323 0.0215,-0.0323 0.0215,-0.11408 z"
         id="path3442"
         inkscape:connector-curvature="0" />
      <path
         d="m 298.6767,434.89992 0,0.0753 q 0.15068,-0.13346 0.3358,-0.13346 l 0.10332,0 q 0.0237,0 0.0409,0.0172 0.0172,0.0172 0.0172,0.0409 l 0,0.33579 q 0,0.0237 -0.0172,0.0409 -0.0172,0.0172 -0.0409,0.0172 l -0.27768,0 q -0.0581,0 -0.0926,0.028 -0.0323,0.0258 -0.0366,0.071 l 0,0.51015 q 0,0.0237 -0.0172,0.0409 -0.0172,0.0172 -0.0409,0.0172 l -0.40898,0 q -0.0237,0 -0.0409,-0.0172 -0.0172,-0.0172 -0.0172,-0.0409 l 0,-1.00308 q 0,-0.0237 0.0172,-0.0409 0.0172,-0.0172 0.0409,-0.0172 l 0.37669,0 q 0.0237,0 0.0409,0.0172 0.0172,0.0172 0.0172,0.0409 z"
         id="path3444"
         inkscape:connector-curvature="0" />
      <path
         d="m 299.83756,434.49094 0,0.69742 0.18942,-0.30997 q 0.0215,-0.0366 0.0624,-0.0366 l 0.43481,0 q 0.0215,0 0.0366,0.0151 0.0151,0.0151 0.0151,0.0344 0,0.0194 -0.0108,0.0344 l -0.2949,0.41974 0.34871,0.53599 q 0.009,0.0129 0.009,0.0323 0,0.0172 -0.0151,0.0323 -0.0151,0.0151 -0.0366,0.0151 l -0.45203,0 q -0.043,0 -0.0667,-0.0366 l -0.21956,-0.36593 0,0.3444 q 0,0.0237 -0.0172,0.0409 -0.0172,0.0172 -0.0409,0.0172 l -0.37669,0 q -0.0237,0 -0.0409,-0.0172 -0.0172,-0.0172 -0.0172,-0.0409 l 0,-1.41206 q 0,-0.0237 0.0172,-0.0409 0.0172,-0.0172 0.0409,-0.0172 l 0.37669,0 q 0.0237,0 0.0409,0.0172 0.0172,0.0172 0.0172,0.0409 z"
         id="path3446"
         inkscape:connector-curvature="0" />
      <path
         d="m 301.92835,435.02692 0,0.36163 q 0,0.17435 0.15928,0.17435 0.1227,0 0.16144,-0.11624 0.0108,-0.0366 0.0258,-0.0495 0.0172,-0.0129 0.0538,-0.0129 l 0.43912,0 q 0.0194,0 0.0323,0.0151 0.0151,0.0129 0.0151,0.0323 0,0.18727 -0.10762,0.31427 -0.19804,0.23678 -0.61778,0.23678 -0.32934,0 -0.52522,-0.14422 -0.19588,-0.14638 -0.19588,-0.44773 l 0,-0.36593 q 0,-0.2949 0.20018,-0.44343 0.20019,-0.14852 0.52092,-0.14852 0.41974,0 0.61778,0.23678 0.10762,0.127 0.10762,0.31427 0,0.0194 -0.0151,0.0344 -0.0129,0.0129 -0.0323,0.0129 l -0.43912,0 q -0.0344,0 -0.0517,-0.0129 -0.0151,-0.0129 -0.028,-0.0495 -0.0409,-0.11624 -0.16144,-0.11624 -0.15928,0 -0.15928,0.17436 z"
         id="path3448"
         inkscape:connector-curvature="0" />
      <path
         d="m 302.95316,435.47465 0,-0.14638 q 0,-0.24539 0.17435,-0.37669 0.17436,-0.13131 0.44988,-0.13131 0.27553,0 0.44988,0.13131 0.17436,0.1313 0.17436,0.37669 l 0,0.14638 q 0,0.24754 -0.1679,0.37884 -0.1679,0.12916 -0.45634,0.12916 -0.28844,0 -0.45633,-0.12916 -0.1679,-0.1313 -0.1679,-0.37884 z m 0.7211,0.0172 0,-0.18082 q 0,-0.0818 -0.0215,-0.11408 -0.0215,-0.0323 -0.0753,-0.0323 -0.0538,0 -0.0753,0.0323 -0.0215,0.0323 -0.0215,0.11408 l 0,0.18082 q 0,0.0861 0.0215,0.11623 0.0215,0.0301 0.0753,0.0301 0.0538,0 0.0753,-0.0323 0.0215,-0.0323 0.0215,-0.11408 z"
         id="path3450"
         inkscape:connector-curvature="0" />
      <path
         d="m 305.65328,435.3089 0,0.5941 q 0,0.0237 -0.0172,0.0409 -0.0172,0.0172 -0.0409,0.0172 l -0.41113,0 q -0.0237,0 -0.0409,-0.0172 -0.0172,-0.0172 -0.0172,-0.0409 l 0,-0.57903 q 0,-0.11839 -0.10763,-0.11839 -0.10762,0 -0.10762,0.11839 l 0,0.57903 q 0,0.0237 -0.0172,0.0409 -0.0172,0.0172 -0.0409,0.0172 l -0.40899,0 q -0.0237,0 -0.0409,-0.0172 -0.0172,-0.0172 -0.0172,-0.0409 l 0,-1.00308 q 0,-0.0237 0.0172,-0.0409 0.0172,-0.0172 0.0409,-0.0172 l 0.3767,0 q 0.0237,0 0.0409,0.0172 0.0172,0.0172 0.0172,0.0409 l 0,0.071 q 0.056,-0.0667 0.15068,-0.10762 0.0969,-0.0431 0.20664,-0.0431 0.17651,0 0.29705,0.12485 0.12054,0.1227 0.12054,0.36378 z"
         id="path3452"
         inkscape:connector-curvature="0" />
      <path
         d="m 306.45315,435.65115 q 0,-0.0215 -0.0108,-0.0344 -0.028,-0.0344 -0.20664,-0.0667 -0.17867,-0.0344 -0.2906,-0.11839 -0.10978,-0.0861 -0.10978,-0.23894 0,-0.15283 0.14638,-0.26261 0.14637,-0.10978 0.39391,-0.10978 0.24969,0 0.40898,0.10333 0.15929,0.10332 0.15929,0.20879 0,0.0237 -0.0151,0.0409 -0.0129,0.0172 -0.0323,0.0172 l -0.36162,0 q -0.0323,0 -0.0796,-0.0344 -0.0473,-0.0344 -0.071,-0.0344 -0.0495,0 -0.0495,0.0344 0,0.0215 0.0108,0.0344 0.028,0.0323 0.23463,0.0624 0.20665,0.0301 0.30781,0.13345 0.10333,0.10117 0.10333,0.22602 0,0.17435 -0.15714,0.27337 -0.15713,0.099 -0.44557,0.099 -0.15283,0 -0.27122,-0.0344 -0.11839,-0.0344 -0.18082,-0.0861 -0.12269,-0.10117 -0.12269,-0.18943 0,-0.0237 0.0151,-0.0409 0.0151,-0.0172 0.0366,-0.0172 l 0.37454,0 q 0.0301,0 0.0775,0.0344 0.0495,0.0323 0.0926,0.0323 0.043,0 0.043,-0.0323 z"
         id="path3454"
         inkscape:connector-curvature="0" />
      <path
         d="m 307.14523,435.49402 0,-0.5941 q 0,-0.0237 0.0172,-0.0409 0.0172,-0.0172 0.0409,-0.0172 l 0.41113,0 q 0.0237,0 0.0409,0.0172 0.0172,0.0172 0.0172,0.0409 l 0,0.57903 q 0,0.11839 0.10763,0.11839 0.10762,0 0.10762,-0.11839 l 0,-0.57903 q 0,-0.0237 0.0172,-0.0409 0.0172,-0.0172 0.0409,-0.0172 l 0.40898,0 q 0.0237,0 0.0409,0.0172 0.0172,0.0172 0.0172,0.0409 l 0,1.00308 q 0,0.0237 -0.0172,0.0409 -0.0172,0.0172 -0.0409,0.0172 l -0.37669,0 q -0.0237,0 -0.0409,-0.0172 -0.0172,-0.0172 -0.0172,-0.0409 l 0,-0.071 q -0.10117,0.15068 -0.35732,0.15068 -0.17651,0 -0.29705,-0.1227 -0.12054,-0.12485 -0.12054,-0.36593 z"
         id="path3456"
         inkscape:connector-curvature="0" />
      <path
         d="m 309.07087,435.96112 -0.3853,0 q -0.0237,0 -0.0409,-0.0172 -0.0172,-0.0172 -0.0172,-0.0409 l 0,-1.41206 q 0,-0.0237 0.0172,-0.0409 0.0172,-0.0172 0.0409,-0.0172 l 0.3853,0 q 0.0237,0 0.0409,0.0172 0.0172,0.0172 0.0172,0.0409 l 0,1.41206 q 0,0.0237 -0.0172,0.0409 -0.0172,0.0172 -0.0409,0.0172 z"
         id="path3458"
         inkscape:connector-curvature="0" />
      <path
         d="m 309.99213,435.21849 0,0.23678 q 0,0.10763 0.0926,0.10763 l 0.19588,0 q 0.0237,0 0.0409,0.0172 0.0172,0.0172 0.0172,0.0409 l 0,0.28198 q 0,0.0237 -0.0172,0.0409 -0.0172,0.0172 -0.0409,0.0172 l -0.24324,0 q -0.53813,0 -0.53813,-0.4628 l 0,-0.27983 -0.17005,0 q -0.0237,0 -0.0409,-0.0172 -0.0172,-0.0172 -0.0172,-0.0409 l 0,-0.26046 q 0,-0.0237 0.0172,-0.0409 0.0172,-0.0172 0.0409,-0.0172 l 0.17005,0 0,-0.35086 q 0,-0.0237 0.0172,-0.0409 0.0172,-0.0172 0.0409,-0.0172 l 0.3767,0 q 0.0237,0 0.0409,0.0172 0.0172,0.0172 0.0172,0.0409 l 0,0.35086 0.27122,0 q 0.0237,0 0.0409,0.0172 0.0172,0.0172 0.0172,0.0409 l 0,0.26046 q 0,0.0237 -0.0172,0.0409 -0.0172,0.0172 -0.0409,0.0172 l -0.27122,0 z"
         id="path3460"
         inkscape:connector-curvature="0" />
      <path
         d="m 310.93332,435.96112 -0.3853,0 q -0.0237,0 -0.0409,-0.0172 -0.0172,-0.0172 -0.0172,-0.0409 l 0,-1.00308 q 0,-0.0237 0.0172,-0.0409 0.0172,-0.0172 0.0409,-0.0172 l 0.3853,0 q 0.0237,0 0.0409,0.0172 0.0172,0.0172 0.0172,0.0409 l 0,1.00308 q 0,0.0237 -0.0172,0.0409 -0.0172,0.0172 -0.0409,0.0172 z m 0.0474,-1.53476 0,0.26046 q 0,0.0237 -0.0172,0.0409 -0.0172,0.0172 -0.0409,0.0172 l -0.36378,0 q -0.0237,0 -0.0409,-0.0172 -0.0172,-0.0172 -0.0172,-0.0409 l 0,-0.26046 q 0,-0.0237 0.0172,-0.0409 0.0172,-0.0172 0.0409,-0.0172 l 0.36378,0 q 0.0237,0 0.0409,0.0172 0.0172,0.0172 0.0172,0.0409 z"
         id="path3462"
         inkscape:connector-curvature="0" />
      <path
         d="m 312.47666,435.3089 0,0.5941 q 0,0.0237 -0.0172,0.0409 -0.0172,0.0172 -0.0409,0.0172 l -0.41113,0 q -0.0237,0 -0.0409,-0.0172 -0.0172,-0.0172 -0.0172,-0.0409 l 0,-0.57903 q 0,-0.11839 -0.10763,-0.11839 -0.10762,0 -0.10762,0.11839 l 0,0.57903 q 0,0.0237 -0.0172,0.0409 -0.0172,0.0172 -0.0409,0.0172 l -0.40898,0 q -0.0237,0 -0.0409,-0.0172 -0.0172,-0.0172 -0.0172,-0.0409 l 0,-1.00308 q 0,-0.0237 0.0172,-0.0409 0.0172,-0.0172 0.0409,-0.0172 l 0.37669,0 q 0.0237,0 0.0409,0.0172 0.0172,0.0172 0.0172,0.0409 l 0,0.071 q 0.056,-0.0667 0.15068,-0.10762 0.0969,-0.0431 0.20664,-0.0431 0.17651,0 0.29705,0.12485 0.12054,0.1227 0.12054,0.36378 z"
         id="path3464"
         inkscape:connector-curvature="0" />
      <path
         d="m 312.64799,435.42514 0,-0.10978 q 0,-0.24109 0.12915,-0.36809 0.12916,-0.127 0.32934,-0.127 0.20019,0 0.31643,0.14638 l 0,-0.0667 q 0,-0.0237 0.0172,-0.0409 0.0172,-0.0172 0.0409,-0.0172 l 0.3767,0 q 0.0237,0 0.0409,0.0172 0.0172,0.0172 0.0172,0.0409 l 0.002,1.02461 q 0,0.2583 -0.1679,0.38315 -0.1679,0.127 -0.44127,0.127 -0.17005,0 -0.30351,-0.0474 -0.13345,-0.0452 -0.20018,-0.11193 -0.13561,-0.13346 -0.13561,-0.22602 0,-0.0237 0.0172,-0.0409 0.0172,-0.0172 0.0409,-0.0172 l 0.41974,0 q 0.0387,0 0.0624,0.0473 0.0258,0.0495 0.0883,0.0495 0.0926,0 0.0926,-0.11624 l 0,-0.15283 q -0.10548,0.0926 -0.29921,0.0926 -0.19157,0 -0.31857,-0.11623 -0.12485,-0.11624 -0.12485,-0.37024 z m 0.635,0.11193 q 0.10117,0 0.10763,-0.10763 l 0,-0.11623 q -0.006,-0.10763 -0.10763,-0.10763 -0.10763,0 -0.10763,0.12485 l 0,0.0818 q 0,0.12485 0.10763,0.12485 z"
         id="path3466"
         inkscape:connector-curvature="0" />
      <path
         d="m 315.33618,435.51985 0.59625,0 q 0.0237,0 0.0409,0.0172 0.0172,0.0172 0.0172,0.0409 l 0,0.32503 q 0,0.0237 -0.0172,0.0409 -0.0172,0.0172 -0.0409,0.0172 l -1.08488,0 q -0.0237,0 -0.0409,-0.0172 -0.0172,-0.0172 -0.0172,-0.0409 l 0,-1.39054 q 0,-0.0237 0.0172,-0.0409 0.0172,-0.0172 0.0409,-0.0172 l 0.43051,0 q 0.0237,0 0.0409,0.0172 0.0172,0.0172 0.0172,0.0409 l 0,1.00739 z"
         id="path3468"
         inkscape:connector-curvature="0" />
      <path
         d="m 316.73196,435.51985 0.59626,0 q 0.0237,0 0.0409,0.0172 0.0172,0.0172 0.0172,0.0409 l 0,0.32503 q 0,0.0237 -0.0172,0.0409 -0.0172,0.0172 -0.0409,0.0172 l -1.08488,0 q -0.0237,0 -0.0409,-0.0172 -0.0172,-0.0172 -0.0172,-0.0409 l 0,-1.39054 q 0,-0.0237 0.0172,-0.0409 0.0172,-0.0172 0.0409,-0.0172 l 0.4305,0 q 0.0237,0 0.0409,0.0172 0.0172,0.0172 0.0172,0.0409 l 0,1.00739 z"
         id="path3470"
         inkscape:connector-curvature="0" />
      <path
         d="m 318.09761,435.02692 0,0.36163 q 0,0.17435 0.15929,0.17435 0.1227,0 0.16144,-0.11624 0.0108,-0.0366 0.0258,-0.0495 0.0172,-0.0129 0.0538,-0.0129 l 0.43911,0 q 0.0194,0 0.0323,0.0151 0.0151,0.0129 0.0151,0.0323 0,0.18727 -0.10763,0.31427 -0.19803,0.23678 -0.61778,0.23678 -0.32933,0 -0.52522,-0.14422 -0.19588,-0.14638 -0.19588,-0.44773 l 0,-0.36593 q 0,-0.2949 0.20019,-0.44343 0.20019,-0.14852 0.52091,-0.14852 0.41975,0 0.61778,0.23678 0.10763,0.127 0.10763,0.31427 0,0.0194 -0.0151,0.0344 -0.0129,0.0129 -0.0323,0.0129 l -0.43911,0 q -0.0344,0 -0.0517,-0.0129 -0.0151,-0.0129 -0.028,-0.0495 -0.0409,-0.11624 -0.16144,-0.11624 -0.15929,0 -0.15929,0.17436 z"
         id="path3472"
         inkscape:connector-curvature="0" />
    </g>
  </g>
</svg>
